<mxfile host="Electron" modified="2023-11-27T02:54:52.840Z" agent="Mozilla/5.0 (Macintosh; Intel Mac OS X 10_15_7) AppleWebKit/537.36 (KHTML, like Gecko) draw.io/22.1.2 Chrome/114.0.5735.289 Electron/25.9.4 Safari/537.36" etag="RK1fSSfZR8v8C66333No" version="22.1.2" type="device">
  <diagram name="第 1 页" id="1kd8Kw-VGOG_gdoqgEbP">
    <mxGraphModel dx="1026" dy="658" grid="1" gridSize="10" guides="1" tooltips="1" connect="1" arrows="1" fold="1" page="1" pageScale="1" pageWidth="827" pageHeight="1169" math="0" shadow="0">
      <root>
        <mxCell id="0" />
        <mxCell id="1" parent="0" />
        <mxCell id="FDJxt21TuaPATRS7FMPk-1" value="0" style="rounded=0;whiteSpace=wrap;html=1;fontSize=24;" parent="1" vertex="1">
          <mxGeometry y="80" width="60" height="60" as="geometry" />
        </mxCell>
        <mxCell id="FDJxt21TuaPATRS7FMPk-2" value="1" style="rounded=0;whiteSpace=wrap;html=1;fontSize=24;" parent="1" vertex="1">
          <mxGeometry x="60" y="80" width="60" height="60" as="geometry" />
        </mxCell>
        <mxCell id="FDJxt21TuaPATRS7FMPk-3" value="2" style="rounded=0;whiteSpace=wrap;html=1;fontSize=24;" parent="1" vertex="1">
          <mxGeometry x="120" y="80" width="60" height="60" as="geometry" />
        </mxCell>
        <mxCell id="FDJxt21TuaPATRS7FMPk-4" value="3" style="rounded=0;whiteSpace=wrap;html=1;fontSize=24;" parent="1" vertex="1">
          <mxGeometry x="180" y="80" width="60" height="60" as="geometry" />
        </mxCell>
        <mxCell id="FDJxt21TuaPATRS7FMPk-5" value="∅" style="rounded=0;whiteSpace=wrap;html=1;fontSize=24;" parent="1" vertex="1">
          <mxGeometry x="240" y="80" width="60" height="60" as="geometry" />
        </mxCell>
        <mxCell id="FDJxt21TuaPATRS7FMPk-6" value="∅" style="rounded=0;whiteSpace=wrap;html=1;fontSize=24;" parent="1" vertex="1">
          <mxGeometry x="300" y="80" width="60" height="60" as="geometry" />
        </mxCell>
        <mxCell id="FDJxt21TuaPATRS7FMPk-7" value="∅" style="rounded=0;whiteSpace=wrap;html=1;fontSize=24;" parent="1" vertex="1">
          <mxGeometry x="360" y="80" width="60" height="60" as="geometry" />
        </mxCell>
        <mxCell id="FDJxt21TuaPATRS7FMPk-8" value="" style="curved=1;endArrow=classic;html=1;rounded=0;entryX=0.25;entryY=1;entryDx=0;entryDy=0;exitX=0.75;exitY=1;exitDx=0;exitDy=0;strokeWidth=3;" parent="1" source="FDJxt21TuaPATRS7FMPk-1" target="FDJxt21TuaPATRS7FMPk-2" edge="1">
          <mxGeometry width="50" height="50" relative="1" as="geometry">
            <mxPoint x="100" y="170" as="sourcePoint" />
            <mxPoint x="50" y="220" as="targetPoint" />
            <Array as="points">
              <mxPoint x="50" y="170" />
              <mxPoint x="70" y="170" />
            </Array>
          </mxGeometry>
        </mxCell>
        <mxCell id="FDJxt21TuaPATRS7FMPk-9" value="" style="curved=1;endArrow=classic;html=1;rounded=0;exitX=0.5;exitY=1;exitDx=0;exitDy=0;entryX=0.25;entryY=1;entryDx=0;entryDy=0;strokeWidth=3;" parent="1" source="FDJxt21TuaPATRS7FMPk-1" target="FDJxt21TuaPATRS7FMPk-3" edge="1">
          <mxGeometry width="50" height="50" relative="1" as="geometry">
            <mxPoint x="70" y="190" as="sourcePoint" />
            <mxPoint x="20" y="240" as="targetPoint" />
            <Array as="points">
              <mxPoint x="20" y="190" />
              <mxPoint x="110" y="190" />
            </Array>
          </mxGeometry>
        </mxCell>
        <mxCell id="FDJxt21TuaPATRS7FMPk-10" value="" style="curved=1;endArrow=classic;html=1;rounded=0;exitX=0.5;exitY=0;exitDx=0;exitDy=0;entryX=0.5;entryY=0;entryDx=0;entryDy=0;strokeWidth=3;" parent="1" source="FDJxt21TuaPATRS7FMPk-2" target="FDJxt21TuaPATRS7FMPk-4" edge="1">
          <mxGeometry width="50" height="50" relative="1" as="geometry">
            <mxPoint x="180" y="30" as="sourcePoint" />
            <mxPoint x="130" y="80" as="targetPoint" />
            <Array as="points">
              <mxPoint x="140" y="40" />
            </Array>
          </mxGeometry>
        </mxCell>
        <mxCell id="FDJxt21TuaPATRS7FMPk-11" value="" style="curved=1;endArrow=classic;html=1;rounded=0;entryX=0.5;entryY=0;entryDx=0;entryDy=0;exitX=0.25;exitY=0;exitDx=0;exitDy=0;strokeWidth=3;" parent="1" source="FDJxt21TuaPATRS7FMPk-2" target="FDJxt21TuaPATRS7FMPk-5" edge="1">
          <mxGeometry width="50" height="50" relative="1" as="geometry">
            <mxPoint x="240" y="20" as="sourcePoint" />
            <mxPoint x="190" y="70" as="targetPoint" />
            <Array as="points">
              <mxPoint x="110" y="40" />
              <mxPoint x="230" y="50" />
            </Array>
          </mxGeometry>
        </mxCell>
        <mxCell id="FDJxt21TuaPATRS7FMPk-12" value="" style="curved=1;endArrow=classic;html=1;rounded=0;entryX=0.5;entryY=1;entryDx=0;entryDy=0;exitX=0.75;exitY=1;exitDx=0;exitDy=0;strokeWidth=3;" parent="1" source="FDJxt21TuaPATRS7FMPk-3" target="FDJxt21TuaPATRS7FMPk-6" edge="1">
          <mxGeometry width="50" height="50" relative="1" as="geometry">
            <mxPoint x="280" y="160" as="sourcePoint" />
            <mxPoint x="230" y="210" as="targetPoint" />
            <Array as="points">
              <mxPoint x="280" y="210" />
            </Array>
          </mxGeometry>
        </mxCell>
        <mxCell id="FDJxt21TuaPATRS7FMPk-13" value="" style="curved=1;endArrow=classic;html=1;rounded=0;exitX=0.5;exitY=1;exitDx=0;exitDy=0;entryX=0.5;entryY=1;entryDx=0;entryDy=0;strokeWidth=3;" parent="1" source="FDJxt21TuaPATRS7FMPk-3" target="FDJxt21TuaPATRS7FMPk-7" edge="1">
          <mxGeometry width="50" height="50" relative="1" as="geometry">
            <mxPoint x="230" y="200" as="sourcePoint" />
            <mxPoint x="180" y="250" as="targetPoint" />
            <Array as="points">
              <mxPoint x="190" y="200" />
              <mxPoint x="320" y="200" />
            </Array>
          </mxGeometry>
        </mxCell>
      </root>
    </mxGraphModel>
  </diagram>
</mxfile>
